<svg width="954" height="591" viewBox="0 0 954 591" fill="none" xmlns="http://www.w3.org/2000/svg">
<path fill-rule="evenodd" clip-rule="evenodd" d="M703.568 476.16C699.051 481.384 692.381 485.261 687.263 490.037C681.889 495.054 676.056 499.438 670.703 504.394C647.089 475.533 614.741 457.836 586.718 433.887C573.433 422.532 563.645 407.131 556.482 391.325C552.81 383.222 550.097 374.882 547.974 366.25C547.018 362.362 546.083 358.487 545.458 354.546C544.701 349.773 544.505 349.366 541.285 345.641C539.899 344.038 537.214 339.354 534.499 339.87C532.214 340.305 528.035 347.26 526.591 348.978C519.647 357.241 512.915 365.755 505.604 373.698C494.419 385.852 484.236 397.812 473.851 410.694C452.607 437.049 429.691 461.858 406.567 486.657C404.852 488.496 400.853 493.889 398.389 494.614C395.393 495.495 390.524 491.82 387.507 489.766C380.224 484.808 374.484 478.671 368.258 472.526C356.109 460.534 347.882 443.701 342.348 427.685C339.035 418.098 336.881 408.16 333.462 398.606C332.037 394.624 328.807 389.73 330.447 386.262C330.935 385.228 334.043 382.481 335.139 382.271C336.435 382.022 338.596 383.799 339.046 383.676C343.346 382.499 340.96 377.998 343.518 375.576C344.968 374.202 352.343 374.403 354.545 373.648C362.596 370.886 369.819 365.618 377.43 362.473C409.293 349.309 441.544 336.504 469.051 315.007C476.185 309.433 480.925 305.244 489.437 301.641C498.039 298 506.686 294.752 515.463 291.575C523.207 288.772 530.993 286.144 538.993 284.135C547.643 281.962 559.914 279.207 568.557 282.006C585.53 287.501 591.011 301.486 597.77 316.239C606.915 336.199 617.972 355.087 629.959 373.459C653.019 408.807 681.065 440.526 703.568 476.16Z" fill="#FF0000"/>
<path fill-rule="evenodd" clip-rule="evenodd" d="M192.407 163.663C191.473 163.189 184.181 166.157 182.957 166.611C178.068 168.425 173.463 171.439 168.857 173.891C172.387 178.187 175.918 182.484 179.447 186.781C182.907 178.294 187.354 171.291 192.407 163.663ZM194.814 216.468C193.613 216.603 203.753 240.97 204.937 243.706C209.246 253.657 213.77 263.511 218.136 273.437C222.366 283.056 227.732 291.905 233.138 300.891C237.762 308.576 242.518 320.502 249.493 326.194C245.089 306.656 245.669 284.191 233.037 267.786C219.943 250.779 206.997 234.172 194.814 216.468ZM703.568 477.028C684.001 446.043 659.507 418.632 639.103 388.2C627.678 371.16 616.558 353.902 606.941 335.764C599.946 322.57 595.598 303.745 584.794 293.658C580.033 289.214 574.946 284.864 568.557 282.873C559.814 280.149 547.776 282.849 538.993 285.003C522.626 289.016 506.637 295.248 491.134 301.793C475.409 308.431 461.993 320.355 447.785 329.935C432.544 340.213 416.046 347.7 398.97 354.254C384.102 359.961 370.875 368.154 356.086 373.898C353.139 375.043 347.125 374.875 344.653 376.368C341.989 377.975 343.038 382.721 339.804 384.472C338.345 385.262 337.859 382.398 336.739 382.445C335.369 382.502 334.12 384.11 332.8 385.128C327.425 389.275 330.718 392.04 332.846 397.746C339.783 416.338 343.511 435.254 353.251 452.806C361.259 467.233 372.72 480.161 386.214 489.712C388.267 491.166 394.958 496.798 397.367 496.423C399.536 496.087 403.949 490.321 405.447 488.755C412.242 481.649 418.453 474.005 425.244 466.888C435.738 455.889 445.84 444.595 456.024 433.446C467.846 420.503 478.309 405.838 488.957 392.009C493.855 385.647 500.16 380.465 505.604 374.566C512.925 366.634 519.647 358.107 526.592 349.846C528.692 347.346 532.212 340.951 535.477 341.026C537.765 341.079 541.799 346.466 542.996 348.154C547.444 354.429 547.424 365.761 549.636 373.594C555.034 392.694 564.767 411.349 578.116 426.088C591.39 440.745 608.394 451.168 624.094 462.949C641.102 475.713 657.215 488.775 670.703 505.262C676.056 500.306 681.889 495.921 687.263 490.905C692.382 486.128 699.052 482.252 703.568 477.028ZM451.699 564.688C455.503 564.727 461.945 567.067 465.348 565.658C455.254 554.489 445.984 544.906 433.213 536.721C419.96 528.227 406.751 519.809 393.879 510.749C367.938 492.491 348.858 470.838 338.022 440.432C335.232 432.602 333.363 424.39 331.318 416.341C330.218 412.006 328.028 391.726 324.309 389.975C322.106 388.937 305.526 400.59 302.899 402.042C296.757 405.439 290.592 408.073 284.242 410.731C270.593 416.446 256.522 420.805 242.048 424.444C224.695 428.807 212.875 421.588 202.125 407.949C189.929 392.475 179.794 375.016 168.643 358.766C163.572 351.375 159.371 343.996 155.626 335.844C153.175 330.51 143.454 316.119 146.813 310.436C156.396 317.732 159.844 332.239 166.372 342.008C174.508 354.183 183.677 365.662 191.855 377.826C198.732 388.054 205.748 400.449 215.908 407.802C224.845 414.269 233.335 412.281 242.953 409.374C254.61 405.852 266.693 404.116 278.117 399.747C290.48 395.02 302.177 388.314 314.239 382.846C319.862 380.296 326.595 378.847 331.894 375.668C336.461 372.93 335.78 371.484 336.115 365.653C336.507 358.85 336.958 352.042 337.259 345.233C337.461 340.658 334.987 334.455 336.666 331.04C322.972 333.414 309.588 336.594 295.99 339.407C288.545 340.947 281.366 342.851 273.845 344.061C270.978 344.522 267.059 344.509 264.492 345.758C262.444 345.17 261.4 345.544 261.36 346.879C261.262 347.604 261.107 348.319 260.894 349.022C256.695 350.932 254.253 346.835 250.611 342.905C246.117 338.055 242.752 332.593 239.455 326.894C232.083 314.152 223.586 302.168 216.764 289.067C209.811 275.712 204.164 261.413 198.269 247.557C192.861 234.845 189.398 221.097 183.422 208.686C180.755 203.146 177.375 198.565 173.428 193.885C170.171 190.023 165.16 181.692 160.296 179.918C159.01 179.449 155.642 180.237 154.181 180.133C151.269 179.925 148.674 178.856 145.694 179.09C139.242 179.595 132.208 183.675 127.052 187.262C130.384 190.232 138.719 193.842 132.732 199.192C126.922 204.386 123.713 195.069 121.496 190.987C111.056 199.56 112.565 211.381 111.359 223.494C110.729 229.818 109.072 236.046 108.003 242.275C107.233 246.758 107.773 251.395 107.553 255.972C106.992 267.603 105.823 278.736 105.88 290.204C105.94 302.462 106.775 314.3 107.756 326.469C109.407 346.957 113.19 367.452 116.434 387.777C118.259 399.202 120.757 410.302 123.182 421.542C125.934 434.299 131.025 446.382 133.88 459.106C136.789 455.408 138.977 455.39 143.682 455.88C147.301 456.257 149.732 455.396 149.52 460.419C149.383 463.677 146.509 466.165 143.329 466.734C139.182 467.475 137.773 465.406 135.636 462.265C135.136 468.213 139.136 474.432 140.718 480.241C142.215 485.746 143.207 491.142 145.723 496.411C148.178 501.551 150.28 506.621 152.764 511.712C153.908 514.054 154.978 516.433 156.135 518.769C156.72 519.952 157.409 521.582 158.282 522.579C160.33 524.916 160.004 523.784 162.401 525.115C167.623 528.016 165.662 527.293 165.784 533.283C165.903 539.192 168.933 543.533 173.792 546.854C184.101 553.902 194.269 555.862 205.989 559.423C216.909 562.741 228.411 565.588 239.974 565.523C254.136 565.444 268.11 563.587 282.272 563.399C297.896 563.192 313.67 563.277 329.262 563.817C335.685 564.039 341.65 564.325 347.851 565.965C355.052 567.871 362.018 567.115 369.44 566.826C385.274 566.21 401.654 564.985 417.281 564.875C428.533 564.795 440.405 564.01 451.699 564.688ZM862.287 570.826C865.102 572.313 871.412 571.703 874.242 571.29C879.227 570.563 879.761 568.587 882.924 564.142C888.368 556.487 892.788 549.156 895.991 540.289C902.121 523.318 904.624 505.956 907.315 488.203C910.306 468.477 904.844 448.03 902.89 428.438C902.441 423.943 901.827 419.489 901.117 415.028C900.692 412.361 900.581 403.288 898.826 400.979C895.454 396.543 879.774 400.121 873.609 400.523C856.401 401.647 839.08 401.91 821.88 402.105C812.709 402.209 803.487 402.593 794.407 402.664C790.237 402.697 786.16 402.49 781.975 402.084C780.575 401.949 779.208 401.627 777.798 401.549C772.97 401.282 773.333 400.582 772.085 404.857C769.899 412.347 771.581 421.876 771.007 429.65C770.239 440.038 769.824 450.573 770.014 460.983C770.19 470.603 769.862 480.201 770.221 489.842C770.371 493.835 770.807 497.09 771.86 500.903C773.051 505.214 774.361 515.286 777.327 518.269C777.664 518.609 780.185 517.817 780.854 518.663C781.885 519.966 781.696 522.723 782.404 523.565C784.695 526.291 789.43 526.507 792.865 527.732C802.29 531.093 810.936 534.742 819.819 539.274C827.756 543.323 840.553 546.769 845.325 554.757C847.513 558.419 847.808 563.248 849.82 567.026C852.111 571.33 847.527 569.08 853.14 570.826C855.668 571.612 859.696 570.826 862.287 570.826ZM25.5323 522.148C24.8183 532.087 19.2193 541.554 17.2703 551.326C16.3583 555.902 14.8113 560.4 13.7393 564.949C12.7113 569.313 8.99733 574.481 9.37333 578.799C23.0813 573.915 36.9663 572.687 51.2933 571.37C64.8723 570.121 79.2173 569.624 92.6823 569.618C106.403 569.611 121.074 568.271 135.202 568.063C149.977 567.846 164.975 567.463 179.536 565.931C171.922 560.292 162.395 554.996 156.773 547.15C150.661 538.621 147.487 527.935 142.109 518.935C131.317 500.874 124.456 478.463 118.799 458.172C107.378 417.21 94.6153 377.004 91.5393 334.516C85.6853 337.514 81.0383 349.145 78.1073 354.937C74.3663 362.332 72.4073 370.348 69.9753 378.208C64.9673 394.397 61.5013 411.183 55.3693 427.218C43.6493 457.87 36.1163 490.898 25.5323 522.148ZM769.644 283.411C772.179 301.731 777.495 320.288 777.699 338.829C777.744 342.908 777.053 347.438 777.903 351.46C778.811 355.754 781.764 359.55 783.469 363.631C786.175 370.109 793.028 383.387 786.419 388.876C786.285 383.667 781.518 377.052 779.117 372.497C775.498 365.634 770.743 359.359 766.82 352.666C758.608 338.657 749.406 324.948 738.823 312.598C728.515 300.568 716.635 289.897 705.704 278.442C702.42 275 676.074 241.873 675.027 242.336C683.199 273.85 697.091 301.27 716.102 327.656C725.423 340.591 736.61 349.103 747.957 360.061C757.406 369.187 775.215 378.945 771.948 393.898C786.719 392.478 801.393 390.209 816.298 390.209C813.847 371.344 811.97 352.778 807.594 334.223C802.626 313.154 799.261 291.455 795.057 270.199C790.767 248.499 783.49 227.491 778.963 205.832C774.628 185.092 770.904 164.389 767.726 143.418C765.1 155.038 766.069 167.801 765.137 179.657C764.185 191.77 764.277 203.66 764.594 215.844C765.181 238.475 767.593 260.833 769.644 283.411ZM833.65 175.513C833.733 165.826 835.61 156.27 836.189 146.606C836.367 143.641 839.32 123.412 836.566 122.356C834.301 127.294 833.773 133.613 831.716 138.794C829.661 143.97 826.912 148.901 824.94 154.113C820.668 165.404 819.194 178.18 818.734 190.184C817.693 217.336 817.155 244.427 818.98 271.579C819.762 283.217 820.362 294.875 820.148 306.536C819.913 319.367 817.948 330.504 820.334 343.23C822.696 355.832 824.18 368.382 824.967 381.168C825.519 390.142 825.741 389.507 834.303 388.876C840.484 388.42 846.726 388.907 852.916 388.624C850.022 353.648 849.549 318.6 844.926 283.758C842.567 265.983 842.504 247.951 839.574 230.242C838.118 221.445 835.675 212.825 834.271 204.018C832.764 194.562 833.506 185.042 833.65 175.513ZM207.542 153.502C224.025 154.93 241.558 159.858 258.453 156.604C255.668 155.476 248.38 153.92 251.66 149.468C254.995 144.941 260.615 150.683 263.941 150.09C265.992 149.724 270.524 141.151 271.788 139.376C274.657 135.342 275.003 134.639 280.162 133.605C285.16 132.605 286.293 133.688 286.926 128.719C287.653 123.005 285.676 116.581 285.872 110.738C286.293 98.1589 290.351 87.1279 294.128 75.2929C278.081 78.7839 262.39 82.9239 245.982 85.1739C238.968 86.1359 228.056 88.3549 221.684 83.5869C220.027 82.3469 220.292 80.6729 218.936 79.2359C216.662 76.8249 212.444 74.3309 209.219 73.6439C189.372 69.4189 187.436 97.7119 197.382 108.299C199.873 110.952 203.339 112.262 205.89 114.693C209.295 117.935 209.574 121.35 210.071 126.299C211.003 135.579 209.737 144.895 205.778 153.384L207.542 153.502ZM448.387 287.072C454.246 288.184 460.361 287.93 466.235 288.879C468.322 289.216 474.579 290.392 476.414 289.172C479.216 287.309 480.212 280.476 481.537 277.294C483.867 271.697 487.164 266.815 489.386 261.116C498.466 237.838 506.933 214.467 517.915 191.984C513.706 190.89 510.474 190.847 506.232 190.282C501.813 189.693 497.807 187.08 493.591 185.957C489.584 184.89 485.386 185.162 481.416 183.921C479.229 183.238 477.352 181.719 475.196 181.188C471.759 180.343 467.748 179.849 465.704 182.105C463.609 184.419 462.874 190.764 461.734 193.753C458.698 201.716 455.171 209.401 452.628 217.547C450.333 224.894 448.153 232.163 446.133 239.577C443.999 247.404 439.793 253.855 437.231 261.332C435.282 267.023 433.443 272.841 433.152 278.909C432.869 284.83 432.007 285.207 437.928 286.153C440.917 286.63 445.575 288.406 448.387 287.072ZM833.877 564.188C835.403 564.899 836.842 564.805 838.192 563.904C824.962 558.316 812.093 550.566 798.291 546.732C785.344 543.137 772.76 538.841 760.287 534.413C750.152 530.815 741.04 528.014 731.877 521.682C726.315 517.838 721.374 513.516 717.552 507.899C713.297 501.645 712.35 492.745 707.742 487.113C701.522 493.944 694.215 499.117 686.856 504.545C684.31 506.423 678.203 510.517 677.332 513.423C676.233 517.09 679.177 520.598 680.633 524.309C684.362 533.813 686.184 543.312 688.207 553.193C689.018 557.153 690.769 563.106 694.022 564.765C696.984 566.274 705.562 565.177 709.248 564.897C728.478 563.44 747.367 561.948 766.713 563.275C788.605 564.776 812.042 565.813 833.877 564.188ZM872.286 388.076C875.781 388.088 879.195 387.651 882.677 387.651C880.667 378.266 885.366 366.122 887.032 356.754C888.896 346.275 890.315 335.439 891.558 324.876C894.178 302.627 895.365 280.648 895.399 258.236C895.431 236.549 899.379 216.731 904.909 195.883C910.847 173.493 920.571 153.358 928.611 131.765C919.792 136.427 914.91 147.336 910.276 155.676C904.418 166.221 900.516 177.897 898.124 189.735C893.509 212.572 888.447 235.478 883.122 258.277C877.577 282.016 874.317 305.973 867.965 329.518C864.867 341 860.655 355.126 860.421 366.967C860.324 371.865 858.848 382.123 861.068 386.377C863.144 390.357 867.734 388.482 872.286 388.076ZM344.735 358.622C344.551 361.06 344.377 363.379 343.944 365.787C348.785 365.741 354.916 360.718 359.068 358.463C364.126 355.716 369.19 352.686 374.137 349.925C383.687 344.593 394.529 341.08 404.726 336.7C416.44 331.668 427.207 325.588 438.409 319.53C442.322 317.414 470.444 305.224 469.972 301.894C463.798 301.688 457.624 301.483 451.449 301.278C446.156 301.102 437.958 302.298 432.889 300.662C430.113 299.765 426.996 296.464 425.948 293.879C424.911 291.321 427.242 279.556 425.887 278.806C418.977 285.861 414.632 295.238 408.454 302.849C401.627 311.261 392.805 316.173 383.082 320.643C372.345 325.58 361.232 329.403 350.259 333.634C345.631 335.418 345.723 336.439 345.32 341.513C344.869 347.184 344.918 352.936 344.735 358.622ZM902.682 571.982C914.321 573.231 926.249 572.519 937.979 573.493C942.247 573.847 948.164 574.375 943.87 580.103C941.166 583.711 932.504 582.554 928.575 582.804C918.026 583.475 906.857 583.114 896.284 582.958C894.058 582.926 891.598 582.264 889.348 582.413C886.751 582.584 883.641 584.452 881.274 584.438C879.815 584.429 879.292 582.89 878.034 582.749C875.293 582.441 872.553 582.216 869.789 582.217C827.999 582.226 786.783 581.386 745.097 581.341C725.164 581.32 704.911 580.976 684.986 580.04C680.802 579.843 656.974 580.699 657.634 573.165C657.973 569.285 665.75 568.738 668.588 568.326C670.691 568.021 672.873 568.069 674.98 567.956C680.578 567.656 683.03 569.003 681.849 562.878C677.37 539.646 669.344 520.446 652.196 503.742C638.174 490.083 621.29 477.693 605.408 466.287C586.124 452.437 570.48 437.871 559.031 416.678C552.345 404.302 546.748 391.649 543.313 377.965C542.077 373.042 542.048 367.443 540.533 362.697C539.368 359.043 536.712 356.486 535.148 352.701C515.962 384.747 490.533 411.558 467.217 440.452C456.076 454.256 443.367 467.367 430.056 479.376C426.106 482.94 422.42 486.661 418.733 490.496C415.649 493.706 410.753 496.559 408.149 500.12C405.651 503.536 406.266 503.373 410.068 506.086C415.094 509.671 420.633 512.65 425.738 516.146C433.898 521.735 442.805 526.457 450.101 533.183C457.992 540.457 464.886 548.883 471.783 557.085C476.38 562.552 482.412 569.567 483.568 576.479C483.951 578.766 485.405 584.422 483.486 586.097C481.846 587.528 482.011 586.985 479.975 586.112C477.307 584.968 476.522 582.343 473.263 581.092C464.924 577.892 454.833 578.991 446.156 578.952C437.476 578.913 428.724 579.888 420.048 579.852C400.236 579.771 380.846 581.375 361.04 582.236C340.004 583.15 318.71 580.956 297.744 581.267C282.21 581.497 266.262 580.336 250.299 581.199C242.088 581.642 234.024 580.615 226.018 580.5C215.536 580.349 204.771 581.775 194.199 581.978C176.847 582.313 159.707 582.311 142.249 582.728C104.697 583.627 67.3483 584.555 29.7743 585.15C24.7623 585.229 19.2753 585.059 14.3223 585.623C9.06533 586.223 11.7793 587.34 8.17233 589.233C-1.92567 594.53 0.406335 574.894 0.648335 571.032C1.94633 550.336 7.20033 530.038 13.5143 510.39C19.5043 491.755 24.3673 472.251 29.4403 453.213C34.9933 432.376 42.2283 412.392 48.7983 391.76C55.5303 370.618 61.0113 348.652 73.2383 329.911C76.0233 325.643 78.9013 321.05 83.3813 318.359C88.4033 315.342 88.6193 317.104 88.6153 311.583C88.6123 306.383 88.9323 299.436 87.7053 294.474C86.5963 289.991 86.7673 292.649 84.2703 289.429C82.2383 286.81 80.1123 285.02 78.6543 281.84C69.6983 290.921 49.1973 286.129 40.5443 279.59C29.9533 271.586 21.8863 258.083 18.9303 245.223C16.5563 234.896 19.4693 215.211 30.8993 210.245C36.4713 207.824 56.9373 205.994 57.7563 198.104C58.1783 194.031 50.9753 188.304 49.3133 184.802C46.2333 178.314 43.2753 169.684 42.4193 162.572C40.7473 148.69 47.0493 133.167 57.0883 123.79C75.5043 106.588 107.907 97.7599 131.596 108.674C126.59 89.5509 123.568 73.0539 126.089 53.1619C128.261 36.0249 138.372 26.4369 152.285 17.9009C176.027 3.33261 208.313 -2.41738 235.46 1.81862C241.629 2.78162 247.549 4.84661 253.261 6.48961C261.559 8.87661 271.493 8.08162 279.328 11.9599C285.009 14.7709 289.323 20.3709 294.312 24.1099C300.137 28.4749 304.977 34.9899 309.024 41.0149C317.679 53.8989 314.297 77.8109 307.053 90.7439C305.5 93.5179 303.581 95.8529 301.011 97.7459C298.335 99.7159 294.256 100.329 292.877 102.884C289.345 109.429 292.752 123.598 293.223 130.672C293.772 138.886 289.619 145.056 280.305 145.711C274.917 146.091 274.745 142.965 272.165 149.397C270.493 153.566 268.974 158.108 266.561 161.93C261.586 169.807 252.474 169.038 244.174 168.825C234.566 168.577 225.102 167.059 215.489 166.101C218.028 174.236 224.978 180.55 229.318 187.797C235.186 197.599 238.718 205.724 239.672 217.144C240.404 225.918 238.824 232.847 232.82 239.377C230.335 242.08 228.132 242.213 228.749 245.331C229.125 247.233 232.414 250.371 233.578 251.889C236.657 255.905 240.232 259.591 242.942 263.88C253.37 280.382 256.45 305.538 256.476 324.748C256.477 325.629 256.947 327.502 256.558 328.413C256.27 329.086 254.082 331.217 254.05 331.4C253.622 333.87 256.03 338.104 259.809 338.523C263.778 338.962 271.047 335.65 274.739 334.562C280.647 332.82 286.669 331.534 292.564 329.745C302.085 326.856 311.562 324.552 321.241 322.288C325.615 321.266 330.013 320.414 334.401 319.458C339.399 318.37 341.721 316.267 344.301 321.352C346.514 325.716 345.138 326.507 350.499 324.308C355.822 322.123 361.023 319.415 366.22 316.949C375.386 312.601 386.302 308.725 394.209 302.306C407.398 291.597 412.282 274.543 424.905 263.18C428.42 260.016 430.517 259.96 432.739 255.577C435.118 250.886 436.345 244.87 437.595 239.824C439.786 230.988 441.345 222.121 443.332 213.293C445.807 202.295 451.156 192.335 455.059 181.845C456.58 177.758 457.368 172.563 459.821 168.89C460.471 167.916 461.713 167.367 462.22 166.561C463.965 163.794 463.947 163.034 464.399 159.705C466.514 144.15 475.799 152.333 485.945 155.9C490.22 157.403 510.519 167.15 502.768 173.632C512.008 176.313 526.807 174.856 526.683 188.098C526.619 194.883 522.561 202.141 520.383 208.492C518.448 214.131 516.578 219.792 514.613 225.422C510.308 237.755 505.085 249.719 500.884 262.09C498.969 267.728 497.389 273.498 494.723 278.819C492.372 283.513 486.679 288.687 485.741 293.82C510.364 283.315 533.143 268.127 560.704 269.095C572.772 269.518 583.724 274.591 590.389 285.202C598.745 298.502 604.243 313.393 612.41 326.816C642.121 375.645 677.557 420.005 710.173 466.813C712.678 470.41 715.9 473.811 716.769 478.256C717.336 481.156 716.236 484.057 716.916 486.843C718.327 492.633 725.456 499.862 730.29 503.189C739.556 509.567 754.619 518.563 766.182 517.767C758.925 500.327 759.022 481.218 759.359 462.615C759.68 444.944 761.59 427.415 763.857 409.926C764.37 405.969 764.817 402.301 765.954 398.466C767.259 394.066 769.051 394.483 765.142 390.528C759.126 384.438 751.97 379.427 745.905 373.261C732.788 359.927 719.344 349.476 709.02 333.553C699.202 318.408 688.844 302.825 681.576 286.24C674.094 269.167 671.103 250.934 667.389 232.853C665.882 225.516 660.386 217.325 661.49 209.663C662.886 199.98 667.376 207.031 669.204 212.242C674.782 228.149 687.843 242.386 698.661 255.179C710.349 268.999 724.644 280.562 736.844 293.98C750.129 308.594 759.229 325.389 771.043 340.989C771.043 321.629 764.433 301.915 761.729 282.763C759.35 265.906 758.603 248.996 757.099 232.066C753.684 193.608 756.635 154.017 761.428 115.834C763.706 97.6999 762.414 79.9929 762.483 61.7969C762.505 56.0059 760.108 42.6589 763.163 37.5199C769.014 27.6769 772.427 49.1999 772.723 52.4089C774.492 71.5249 771.319 90.4279 772.94 109.462C774.634 129.339 778.31 148.658 781.438 168.305C784.827 189.578 790.344 210.371 795.626 231.236C801.172 253.143 805.836 275.507 812.002 297.239C813.665 290.408 811.332 282.016 810.871 275.059C810.213 265.103 808.928 255.145 808.817 245.163C808.639 229.254 808.515 213.05 809.415 197.215C810.302 181.607 810.034 165.252 814.821 150.215C817.093 143.078 820.425 136.115 823.685 129.392C827.707 121.102 829.129 113.064 831.356 104.247C833.264 96.6959 836.056 89.3439 837.327 81.6419C838.117 76.8519 840.322 62.7119 845.806 73.4249C848.99 79.6429 847.614 88.8609 847.703 95.5409C847.817 104.105 846.506 112.432 846.305 120.96C845.914 137.692 845.633 154.404 844.385 171.108C843.076 188.633 844.219 204.339 847.553 221.607C851.202 240.509 852.27 259.452 854.161 278.585C855.136 288.464 856.78 298.288 857.574 308.181C857.994 313.42 855.84 328.443 859.594 332.174C859.957 323.1 862.557 314.018 864.528 305.176C866.863 294.701 867.806 283.689 869.527 273.064C872.314 255.85 877.722 239.411 881.3 222.39C888.675 187.303 894.803 142.208 925.711 119.242C929.755 116.237 934.199 114.019 938.571 111.546C941.046 110.146 944.723 106.524 947.555 105.892C950.646 105.202 951.935 105.738 953.188 109.324C954.935 114.323 951.74 116.658 948.757 120.289C938.434 132.853 934.024 148.959 927.65 163.694C913.054 197.435 906.596 233.023 906.522 269.495C906.483 288.588 905.166 307.003 903.13 325.98C900.939 346.403 898.054 368.003 891.849 387.65C898.072 389.045 904.824 386.965 906.513 394.199C906.928 395.976 906.178 398.077 906.637 400.39C907.083 402.638 908.156 404.874 908.791 407.085C910.103 411.658 910.797 416.17 911.435 420.866C913.902 439.014 918.138 456.275 918.589 474.676C919.004 491.685 915.674 508.918 912.606 525.6C909.515 542.402 900.65 556.725 893.671 571.92C896.675 571.92 899.678 571.951 902.682 571.982Z" fill="black"/>
<path fill-rule="evenodd" clip-rule="evenodd" d="M507.681 533.358C504.371 534.294 488.392 536.06 488.395 541.074C488.397 544.081 504.355 544.022 507.179 544.349C507.347 540.686 507.514 537.022 507.681 533.358ZM542.952 567.957C552.16 569.708 564.659 567.246 570.546 559.128C573.297 555.335 574.601 549.566 575.497 545.039C576.353 540.725 578.992 529.96 577.196 525.916C574.991 520.95 553.834 526.14 547.673 526.71C536.924 527.702 525.809 527.819 515.053 527.118C515.053 538.224 514.485 549.048 521.017 558.607C525.73 565.504 534.58 567.132 542.952 567.957ZM541.101 581.675C531.096 578.013 520.592 580.393 514.077 569.652C512.424 566.927 511.032 563.997 510.032 560.97C509.543 559.644 509.163 558.286 508.893 556.895C509.402 553.901 508.305 553.057 505.603 554.362C500.3 553.331 494.485 556.971 488.899 555.898C475.351 553.296 477.812 533.889 486.904 527.171C488.7 525.843 490.494 525.474 492.55 524.818C497.082 523.374 499.535 524.987 503.68 524.577C507.03 524.246 507.951 520.733 511.551 519.186C513.908 518.174 517.18 518.252 519.658 518.15C532.626 517.617 545.635 517.622 558.686 516.777C564.773 516.383 571.345 517.347 577.308 516.307C580.1 515.819 579.699 513.961 582.343 515.591C585.08 517.279 583.898 523.521 583.76 526.01C582.961 540.403 582.104 555.839 574.394 568.422C567.34 579.935 553.459 581.113 541.101 581.675Z" fill="black"/>
<path fill-rule="evenodd" clip-rule="evenodd" d="M12.7141 585.641C15.9331 585.606 19.1511 585.572 22.3591 585.539C19.1361 585.574 15.9251 585.607 12.7141 585.641Z" fill="black"/>
<path fill-rule="evenodd" clip-rule="evenodd" d="M906.542 278.764C906.536 275.672 906.529 272.58 906.522 269.494C906.528 272.588 906.535 275.676 906.542 278.764Z" fill="black"/>
<path fill-rule="evenodd" clip-rule="evenodd" d="M87.7153 291.462C87.7053 294.474 87.6953 297.486 87.6853 300.491C87.6943 297.477 87.7043 294.469 87.7153 291.462Z" fill="black"/>
<path fill-rule="evenodd" clip-rule="evenodd" d="M355.284 582.226C357.845 582.23 360.406 582.233 362.955 582.24C360.39 582.237 357.838 582.232 355.284 582.226Z" fill="black"/>
<path fill-rule="evenodd" clip-rule="evenodd" d="M199.787 581.612C202.348 581.62 204.908 581.628 207.457 581.638C204.892 581.631 202.34 581.621 199.787 581.612Z" fill="black"/>
<path fill-rule="evenodd" clip-rule="evenodd" d="M759.697 456.52C759.585 458.553 759.471 460.585 759.359 462.614C759.472 460.579 759.585 458.55 759.697 456.52Z" fill="black"/>
<path fill-rule="evenodd" clip-rule="evenodd" d="M902.683 571.981C900.704 571.96 898.725 571.94 896.746 571.919C898.734 571.09 900.713 571.127 902.683 571.981Z" fill="black"/>
<path fill-rule="evenodd" clip-rule="evenodd" d="M726.976 580.983C728.397 580.961 729.817 580.939 731.224 580.915C729.8 580.936 728.388 580.96 726.976 580.983Z" fill="black"/>
<path fill-rule="evenodd" clip-rule="evenodd" d="M905.771 303.852C905.806 302.315 905.841 300.779 905.876 299.248C905.841 300.786 905.806 302.319 905.771 303.852Z" fill="black"/>
<path fill-rule="evenodd" clip-rule="evenodd" d="M772.94 109.462C772.823 107.877 772.706 106.293 772.588 104.712C772.706 106.298 772.823 107.88 772.94 109.462Z" fill="black"/>
<path fill-rule="evenodd" clip-rule="evenodd" d="M906.472 284.817C906.491 283.228 906.51 281.64 906.529 280.057C906.51 281.647 906.491 283.232 906.472 284.817Z" fill="black"/>
<path fill-rule="evenodd" clip-rule="evenodd" d="M459.788 579.013C461.051 579.032 462.314 579.05 463.566 579.066C462.301 579.046 461.044 579.03 459.788 579.013Z" fill="black"/>
<path fill-rule="evenodd" clip-rule="evenodd" d="M785.094 581.604C786.328 581.628 787.563 581.653 788.786 581.679C787.547 581.655 786.321 581.629 785.094 581.604Z" fill="black"/>
<path fill-rule="evenodd" clip-rule="evenodd" d="M918.447 469.894C918.358 468.5 918.269 467.107 918.182 465.716C918.271 467.11 918.359 468.502 918.447 469.894Z" fill="black"/>
<path fill-rule="evenodd" clip-rule="evenodd" d="M896.284 582.958C897.289 582.952 898.294 582.946 899.287 582.944C898.279 582.951 897.281 582.955 896.284 582.958Z" fill="black"/>
<path fill-rule="evenodd" clip-rule="evenodd" d="M759.366 581.667C760.361 581.643 761.356 581.618 762.341 581.595C761.342 581.62 760.353 581.644 759.366 581.667Z" fill="black"/>
<path fill-rule="evenodd" clip-rule="evenodd" d="M535.678 580.907C536.774 580.901 537.869 580.895 538.954 580.887C537.856 580.893 536.767 580.9 535.678 580.907Z" fill="black"/>
<path fill-rule="evenodd" clip-rule="evenodd" d="M283.069 580.903C284.11 580.91 285.152 580.918 286.182 580.927C285.137 580.921 284.103 580.912 283.069 580.903Z" fill="black"/>
<path fill-rule="evenodd" clip-rule="evenodd" d="M221.618 581.071C222.68 581.012 223.74 580.952 224.792 580.894C223.727 580.954 222.673 581.012 221.618 581.071Z" fill="black"/>
<path fill-rule="evenodd" clip-rule="evenodd" d="M515.823 176.453C514.243 176.317 512.663 176.181 511.083 176.044C512.665 176.155 514.338 175.219 515.823 176.453Z" fill="black"/>
<path fill-rule="evenodd" clip-rule="evenodd" d="M918.597 572.582C917.039 572.425 915.481 572.267 913.923 572.109C915.482 572.267 917.039 572.425 918.597 572.582Z" fill="black"/>
<path fill-rule="evenodd" clip-rule="evenodd" d="M809.925 186.046C809.821 187.411 809.715 188.777 809.611 190.138C809.716 188.771 809.821 187.408 809.925 186.046Z" fill="black"/>
<path fill-rule="evenodd" clip-rule="evenodd" d="M906.864 242.958C906.97 241.664 907.076 240.37 907.182 239.081C907.076 240.377 906.969 241.667 906.864 242.958Z" fill="black"/>
<path fill-rule="evenodd" clip-rule="evenodd" d="M809.305 207.22C809.193 208.583 809.08 209.945 808.969 211.303C809.081 209.939 809.193 208.579 809.305 207.22Z" fill="black"/>
<path fill-rule="evenodd" clip-rule="evenodd" d="M906.204 295.196C906.194 293.879 906.184 292.562 906.175 291.249C907.025 292.562 906.991 293.876 906.204 295.196Z" fill="black"/>
<path fill-rule="evenodd" clip-rule="evenodd" d="M759.719 484.328C759.707 485.648 759.696 486.969 759.682 488.283C758.81 486.952 758.984 485.637 759.719 484.328Z" fill="black"/>
<path fill-rule="evenodd" clip-rule="evenodd" d="M859.022 331.605C858.87 330.269 858.717 328.932 858.565 327.6C858.718 328.938 858.87 330.272 859.022 331.605Z" fill="black"/>
<path fill-rule="evenodd" clip-rule="evenodd" d="M36.7571 208.976C35.7241 210.341 34.3171 209.406 33.0891 209.572C34.3131 209.373 35.5351 209.175 36.7571 208.976Z" fill="black"/>
<path fill-rule="evenodd" clip-rule="evenodd" d="M547.549 517.724C546.244 517.726 544.939 517.727 543.634 517.729C544.94 517.727 546.244 517.725 547.549 517.724Z" fill="black"/>
<path fill-rule="evenodd" clip-rule="evenodd" d="M756.046 214.584C756.168 215.694 756.289 216.804 756.411 217.91C756.289 216.798 756.168 215.691 756.046 214.584Z" fill="black"/>
<path fill-rule="evenodd" clip-rule="evenodd" d="M111.099 104.343C109.787 104.369 108.475 104.395 107.163 104.421C108.461 103.657 109.769 103.436 111.099 104.343Z" fill="black"/>
<path fill-rule="evenodd" clip-rule="evenodd" d="M809.272 226.421C809.187 227.585 809.102 228.748 809.018 229.907C809.103 228.743 809.187 227.582 809.272 226.421Z" fill="black"/>
<path fill-rule="evenodd" clip-rule="evenodd" d="M773.293 83.5389C773.395 82.4779 773.496 81.4169 773.597 80.3619C773.495 81.4249 773.395 82.4819 773.293 83.5389Z" fill="black"/>
<path fill-rule="evenodd" clip-rule="evenodd" d="M762.983 80.2149C762.88 81.3659 762.777 82.5179 762.675 83.6649C762.778 82.5119 762.88 81.3629 762.983 80.2149Z" fill="black"/>
<path fill-rule="evenodd" clip-rule="evenodd" d="M193.09 3.32302C191.755 3.48502 190.42 3.64702 189.086 3.80802C190.421 3.64602 191.755 3.48502 193.09 3.32302Z" fill="black"/>
<path fill-rule="evenodd" clip-rule="evenodd" d="M96.6664 105.259C95.2964 105.399 93.9264 105.539 92.5574 105.679C93.9274 105.539 95.2974 105.399 96.6664 105.259Z" fill="black"/>
<path fill-rule="evenodd" clip-rule="evenodd" d="M847.399 108.633C847.483 107.562 847.566 106.49 847.649 105.425C847.566 106.497 847.482 107.565 847.399 108.633Z" fill="black"/>
<path fill-rule="evenodd" clip-rule="evenodd" d="M51.7004 285.389C52.4894 285.401 53.2774 285.412 54.0544 285.424C53.2624 285.412 52.4814 285.401 51.7004 285.389Z" fill="black"/>
<path fill-rule="evenodd" clip-rule="evenodd" d="M763.023 417.575C762.944 418.761 762.865 419.946 762.786 421.129C762.866 419.943 762.945 418.759 763.023 417.575Z" fill="black"/>
<path fill-rule="evenodd" clip-rule="evenodd" d="M843.509 186.773C843.477 185.63 843.446 184.488 843.413 183.348C843.447 184.492 843.478 185.632 843.509 186.773Z" fill="black"/>
<path fill-rule="evenodd" clip-rule="evenodd" d="M226.696 0.61852C225.479 0.61852 224.262 0.619519 223.047 0.619519C224.264 -0.216481 225.48 -0.19548 226.696 0.61852Z" fill="black"/>
<path fill-rule="evenodd" clip-rule="evenodd" d="M551.607 269.642C550.274 269.676 548.941 269.71 547.61 269.744C548.919 268.818 550.253 268.795 551.607 269.642Z" fill="black"/>
<path fill-rule="evenodd" clip-rule="evenodd" d="M668.097 578.966C668.887 578.982 669.678 578.999 670.458 579.018C669.664 579.003 668.88 578.984 668.097 578.966Z" fill="black"/>
<path fill-rule="evenodd" clip-rule="evenodd" d="M697.853 580.355C698.642 580.327 699.431 580.299 700.209 580.272C699.417 580.3 698.635 580.328 697.853 580.355Z" fill="black"/>
<path fill-rule="evenodd" clip-rule="evenodd" d="M232.158 580.904C232.981 580.925 233.804 580.946 234.616 580.966C233.79 580.945 232.974 580.925 232.158 580.904Z" fill="black"/>
<path fill-rule="evenodd" clip-rule="evenodd" d="M917.763 456.669C917.646 455.539 917.529 454.408 917.411 453.283C917.529 454.415 917.646 455.542 917.763 456.669Z" fill="black"/>
<path fill-rule="evenodd" clip-rule="evenodd" d="M810.28 266.171C810.374 267.248 810.467 268.325 810.559 269.395C810.466 268.317 810.373 267.244 810.28 266.171Z" fill="black"/>
<path fill-rule="evenodd" clip-rule="evenodd" d="M851.644 247.68C851.516 246.538 851.388 245.396 851.261 244.258C851.389 245.401 851.516 246.54 851.644 247.68Z" fill="black"/>
<path fill-rule="evenodd" clip-rule="evenodd" d="M238.835 581.585C239.665 581.572 240.496 581.559 241.317 581.548C240.483 581.562 239.659 581.573 238.835 581.585Z" fill="black"/>
<path fill-rule="evenodd" clip-rule="evenodd" d="M541.101 581.675C541.909 581.638 542.715 581.602 543.513 581.566C542.704 581.603 541.902 581.639 541.101 581.675Z" fill="black"/>
<path fill-rule="evenodd" clip-rule="evenodd" d="M844.892 164.291C844.855 163.134 844.819 161.977 844.783 160.822C844.82 161.98 844.856 163.135 844.892 164.291Z" fill="black"/>
<path fill-rule="evenodd" clip-rule="evenodd" d="M160.132 582.341C160.942 582.335 161.751 582.328 162.55 582.323C161.736 582.33 160.935 582.336 160.132 582.341Z" fill="black"/>
<path fill-rule="evenodd" clip-rule="evenodd" d="M844.554 582.329C845.386 582.337 846.219 582.346 847.041 582.355C846.204 582.347 845.379 582.338 844.554 582.329Z" fill="black"/>
<path fill-rule="evenodd" clip-rule="evenodd" d="M862.529 582.23C863.333 582.287 864.136 582.345 864.93 582.4C864.123 582.343 863.326 582.287 862.529 582.23Z" fill="black"/>
<path fill-rule="evenodd" clip-rule="evenodd" d="M869.789 582.216C870.607 582.24 871.426 582.265 872.234 582.283C871.413 582.258 870.601 582.237 869.789 582.216Z" fill="black"/>
<path fill-rule="evenodd" clip-rule="evenodd" d="M907.064 252.267C907.01 251.129 906.957 249.99 906.904 248.855C906.958 249.995 907.01 251.131 907.064 252.267Z" fill="black"/>
<path fill-rule="evenodd" clip-rule="evenodd" d="M357.731 567.299C360.22 567.17 362.71 567.04 365.2 566.91C362.71 567.04 360.22 567.169 357.731 567.299Z" fill="black"/>
<path fill-rule="evenodd" clip-rule="evenodd" d="M207.542 153.502C209.703 153.69 211.864 153.878 214.023 154.064C211.862 153.877 209.702 153.689 207.542 153.502Z" fill="black"/>
<path fill-rule="evenodd" clip-rule="evenodd" d="M817.689 247.454C817.756 249.516 817.825 251.578 817.892 253.634C817.824 251.571 817.756 249.513 817.689 247.454Z" fill="black"/>
<path fill-rule="evenodd" clip-rule="evenodd" d="M862.287 570.825C864.543 570.962 866.798 571.098 869.054 571.235C866.784 571.338 864.48 571.985 862.287 570.825Z" fill="black"/>
<path fill-rule="evenodd" clip-rule="evenodd" d="M848.937 326.919C848.954 324.952 848.971 322.985 848.987 321.023C848.97 322.991 848.954 324.955 848.937 326.919Z" fill="black"/>
<path fill-rule="evenodd" clip-rule="evenodd" d="M843.163 388.72C845.142 388.746 847.123 388.773 849.101 388.799C847.121 388.772 845.142 388.746 843.163 388.72Z" fill="black"/>
<path fill-rule="evenodd" clip-rule="evenodd" d="M344.879 354.139C344.829 355.638 344.78 357.137 344.733 358.629C344.783 357.128 344.831 355.634 344.879 354.139Z" fill="black"/>
<path fill-rule="evenodd" clip-rule="evenodd" d="M876.106 290.664C876.025 292.156 875.944 293.647 875.865 295.131C875.947 293.638 876.027 292.151 876.106 290.664Z" fill="black"/>
<path fill-rule="evenodd" clip-rule="evenodd" d="M833.877 564.188C835.317 564.09 836.757 563.993 838.194 563.9C837.111 564.767 836.022 564.839 833.877 564.188Z" fill="black"/>
<path fill-rule="evenodd" clip-rule="evenodd" d="M824.24 369.189C824.339 370.797 824.438 372.405 824.536 374.008C824.437 372.399 824.339 370.794 824.24 369.189Z" fill="black"/>
<path fill-rule="evenodd" clip-rule="evenodd" d="M285.825 115.385C285.84 113.832 285.855 112.279 285.871 110.732C285.856 112.287 285.841 113.836 285.825 115.385Z" fill="black"/>
<path fill-rule="evenodd" clip-rule="evenodd" d="M825.983 389.044L831.35 388.927C829.579 389.783 827.79 389.813 825.983 389.044Z" fill="black"/>
<path fill-rule="evenodd" clip-rule="evenodd" d="M875.498 400.505C874.232 400.516 872.967 400.526 871.71 400.539C872.979 400.529 874.239 400.517 875.498 400.505Z" fill="black"/>
<path fill-rule="evenodd" clip-rule="evenodd" d="M412.026 564.805C413.778 564.828 415.53 564.851 417.282 564.873C415.517 565.758 413.763 565.883 412.026 564.805Z" fill="black"/>
<path fill-rule="evenodd" clip-rule="evenodd" d="M81.9963 569.968C83.7743 569.809 85.5533 569.65 87.3313 569.491C85.5533 569.65 83.7743 569.809 81.9963 569.968Z" fill="black"/>
<path fill-rule="evenodd" clip-rule="evenodd" d="M818.306 260.697C818.393 262.311 818.48 263.925 818.567 265.534C818.48 263.918 818.393 262.308 818.306 260.697Z" fill="black"/>
<path fill-rule="evenodd" clip-rule="evenodd" d="M250.765 157.291C252.264 156.552 253.775 156.428 255.301 157.211C253.788 157.238 252.277 157.265 250.765 157.291Z" fill="black"/>
<path fill-rule="evenodd" clip-rule="evenodd" d="M769.273 279.334C769.397 280.695 769.521 282.057 769.645 283.414C769.52 282.051 769.397 280.692 769.273 279.334Z" fill="black"/>
<path fill-rule="evenodd" clip-rule="evenodd" d="M895.9 247.567C895.13 246.235 895.157 244.91 895.938 243.597C895.925 244.922 895.913 246.245 895.9 247.567Z" fill="black"/>
<path fill-rule="evenodd" clip-rule="evenodd" d="M818.552 201.327C818.552 202.674 818.553 204.022 818.553 205.365C818.552 204.015 818.552 202.671 818.552 201.327Z" fill="black"/>
<path fill-rule="evenodd" clip-rule="evenodd" d="M872.286 388.076C873.829 387.603 875.372 386.934 876.908 388.092C875.367 388.087 873.827 388.081 872.286 388.076Z" fill="black"/>
<path fill-rule="evenodd" clip-rule="evenodd" d="M373.681 566.69C375.234 566.545 376.786 566.401 378.338 566.256C376.786 566.401 375.234 566.545 373.681 566.69Z" fill="black"/>
<path fill-rule="evenodd" clip-rule="evenodd" d="M160.836 566.693C162.258 566.068 163.677 565.74 165.078 566.741C163.663 566.724 162.25 566.709 160.836 566.693Z" fill="black"/>
<path fill-rule="evenodd" clip-rule="evenodd" d="M451.699 564.687C453.22 564.023 454.737 563.658 456.238 564.734C454.724 564.718 453.212 564.703 451.699 564.687Z" fill="black"/>
<path fill-rule="evenodd" clip-rule="evenodd" d="M113.211 367.962C113.325 369.335 113.44 370.708 113.553 372.077C113.438 370.703 113.324 369.333 113.211 367.962Z" fill="black"/>
<path fill-rule="evenodd" clip-rule="evenodd" d="M466.235 288.878C467.731 288.334 469.222 288.05 470.691 288.959C469.205 288.931 467.72 288.905 466.235 288.878Z" fill="black"/>
<path fill-rule="evenodd" clip-rule="evenodd" d="M818.283 329.748C818.366 331.09 818.449 332.432 818.531 333.771C818.448 332.428 818.365 331.088 818.283 329.748Z" fill="black"/>
<path fill-rule="evenodd" clip-rule="evenodd" d="M112.244 208.656C112.12 209.737 111.996 210.819 111.873 211.894C111.997 210.811 112.12 209.734 112.244 208.656Z" fill="black"/>
<path fill-rule="evenodd" clip-rule="evenodd" d="M25.5322 522.147C25.4552 523.2 25.3792 524.252 25.3032 525.298C25.3822 524.244 25.4572 523.195 25.5322 522.147Z" fill="black"/>
<path fill-rule="evenodd" clip-rule="evenodd" d="M849.601 336.85C849.517 335.762 849.433 334.674 849.349 333.591C849.433 334.681 849.517 335.766 849.601 336.85Z" fill="black"/>
<path fill-rule="evenodd" clip-rule="evenodd" d="M740.651 562.656C741.984 562.665 743.317 562.675 744.649 562.684C743.316 562.675 741.983 562.665 740.651 562.656Z" fill="black"/>
<path fill-rule="evenodd" clip-rule="evenodd" d="M344.374 363.397C344.623 364.189 344.872 364.982 345.121 365.775C343.458 366.177 343.209 365.384 344.374 363.397Z" fill="black"/>
<path fill-rule="evenodd" clip-rule="evenodd" d="M444.326 287.088C445.68 287.082 447.034 287.077 448.388 287.071C447.036 287.713 445.683 288.154 444.326 287.088Z" fill="black"/>
<path fill-rule="evenodd" clip-rule="evenodd" d="M113.97 374.462C114.016 375.662 114.062 376.863 114.106 378.059C114.059 376.858 114.014 375.66 113.97 374.462Z" fill="black"/>
<path fill-rule="evenodd" clip-rule="evenodd" d="M128.294 568.006C129.601 568.005 130.907 568.004 132.214 568.003C130.906 568.004 129.601 568.005 128.294 568.006Z" fill="black"/>
<path fill-rule="evenodd" clip-rule="evenodd" d="M772.56 387.115C772.608 388.22 772.657 389.325 772.706 390.424C772.659 389.316 772.609 388.216 772.56 387.115Z" fill="black"/>
<path fill-rule="evenodd" clip-rule="evenodd" d="M100.548 569.353C101.833 568.5 103.121 568.574 104.411 569.339C103.123 569.344 101.835 569.349 100.548 569.353Z" fill="black"/>
<path fill-rule="evenodd" clip-rule="evenodd" d="M134.386 193.219C134.455 194.347 134.525 195.476 134.597 196.597C134.528 195.467 134.457 194.343 134.386 193.219Z" fill="black"/>
<path fill-rule="evenodd" clip-rule="evenodd" d="M93.8623 569.469C95.1983 569.474 96.5343 569.48 97.8693 569.486C96.5293 570.398 95.1943 570.441 93.8623 569.469Z" fill="black"/>
<path fill-rule="evenodd" clip-rule="evenodd" d="M833.65 175.512C833.661 174.366 833.671 173.221 833.681 172.078C833.67 173.225 833.66 174.368 833.65 175.512Z" fill="black"/>
<path fill-rule="evenodd" clip-rule="evenodd" d="M220.301 155.472C221.579 155.639 222.857 155.806 224.134 155.972C222.856 155.805 221.578 155.639 220.301 155.472Z" fill="black"/>
<path fill-rule="evenodd" clip-rule="evenodd" d="M107.525 254.371C107.542 255.441 107.559 256.512 107.579 257.577C107.562 256.505 107.544 255.438 107.525 254.371Z" fill="black"/>
<path fill-rule="evenodd" clip-rule="evenodd" d="M842.254 254.217C842.184 253.127 842.114 252.037 842.044 250.952C842.114 252.044 842.185 253.131 842.254 254.217Z" fill="black"/>
<path fill-rule="evenodd" clip-rule="evenodd" d="M544.182 568.191C545.759 568.334 547.336 568.477 548.912 568.619C547.335 568.476 545.759 568.334 544.182 568.191Z" fill="black"/>
<path fill-rule="evenodd" clip-rule="evenodd" d="M538.913 527.368C538.06 527.382 537.209 527.395 536.364 527.413C537.219 527.402 538.066 527.385 538.913 527.368Z" fill="black"/>
<path fill-rule="evenodd" clip-rule="evenodd" d="M538.985 567.567C540.307 567.697 541.631 567.828 542.953 567.958C541.63 567.827 540.307 567.697 538.985 567.567Z" fill="black"/>
<path fill-rule="evenodd" clip-rule="evenodd" d="M300.964 478.498C302.685 488.222 287.573 497.732 286.375 483.909C285.937 478.854 289.317 475.3 293.102 472.21C298.474 467.825 301.475 472.024 300.964 478.498Z" fill="black"/>
<path fill-rule="evenodd" clip-rule="evenodd" d="M134.391 359.861C137.951 361.318 165.15 370.181 151.022 374.639C147.282 375.819 141.629 375.995 138.387 373.916C134.487 371.414 130.553 364.031 134.391 359.861Z" fill="black"/>
<path fill-rule="evenodd" clip-rule="evenodd" d="M141.085 228.177C150.317 227.105 158.823 242.268 147.441 241.776C139.156 241.417 128.014 228.177 141.085 228.177Z" fill="black"/>
<path fill-rule="evenodd" clip-rule="evenodd" d="M174.11 265.355C181.819 272.081 167.53 287.134 161.857 281.308C158.96 278.332 161.632 271.921 164.023 269.431C166.477 266.876 170.843 266.396 174.11 265.355Z" fill="black"/>
<path fill-rule="evenodd" clip-rule="evenodd" d="M197.06 439.724C192.509 440.447 172.495 446.987 176.669 435.108C178.261 430.578 182.701 431.922 186.76 432.13C193.302 432.464 197.06 432.151 197.06 439.724Z" fill="black"/>
<path fill-rule="evenodd" clip-rule="evenodd" d="M183.877 470.321C190.69 473.966 180.731 494.364 175.084 490.024C167.249 484.002 177.965 472.153 183.877 470.321Z" fill="black"/>
<path fill-rule="evenodd" clip-rule="evenodd" d="M213.591 453.924C216.904 452.571 232.521 467.593 226.576 471.772C223.529 473.914 217.756 470.242 215.919 468.028C212.475 463.876 212.163 458.754 213.591 453.924Z" fill="black"/>
<path fill-rule="evenodd" clip-rule="evenodd" d="M123.488 331.139C126.874 331.695 132.72 331.871 132.939 336.629C133.131 340.811 127.888 342.166 124.197 342.494C120.367 342.834 115.297 341.753 115.224 336.938C115.147 331.743 123.368 332.056 123.488 331.139Z" fill="black"/>
<path fill-rule="evenodd" clip-rule="evenodd" d="M206.986 538.191C210.592 540.38 227.412 548.262 220.202 553.956C217.504 556.087 209.325 551.686 207.484 549.449C205.287 546.779 203.14 540.524 206.986 538.191Z" fill="black"/>
<path fill-rule="evenodd" clip-rule="evenodd" d="M253.744 480.997C253.223 472.297 267.901 468.834 264.858 481.183C264 484.665 263.17 489.95 258.865 490.152C253.777 490.391 253.593 484.371 253.744 480.997Z" fill="black"/>
<path fill-rule="evenodd" clip-rule="evenodd" d="M208.402 329.706C208.504 336.306 195.858 342.126 195.76 331.665C195.673 322.317 208.874 319.581 208.402 329.706Z" fill="black"/>
<path fill-rule="evenodd" clip-rule="evenodd" d="M200.051 295.333C203.167 296.337 207.308 296.854 207.582 300.813C207.873 305.003 203.981 306.868 200.479 306.633C197.607 306.44 193.357 304.314 192.835 301.198C192.07 296.624 196.534 296.325 200.051 295.333Z" fill="black"/>
<path fill-rule="evenodd" clip-rule="evenodd" d="M142.109 416.166C142.056 410.72 152.97 404.175 154.98 410.494C155.623 412.516 150.479 421.583 148.768 422.262C144.241 424.059 143.609 419.871 142.109 416.166Z" fill="black"/>
<path fill-rule="evenodd" clip-rule="evenodd" d="M231.544 506.809C227.856 510.11 216.793 519.383 217.62 506.935C218.148 498.983 232.517 499.398 231.544 506.809Z" fill="black"/>
<path fill-rule="evenodd" clip-rule="evenodd" d="M411.787 542.386C412.996 537.152 430.304 546.232 424.528 552.843C422.59 555.062 417.521 553.054 415.572 551.739C411.715 549.136 411.631 546.733 411.787 542.386Z" fill="black"/>
<path fill-rule="evenodd" clip-rule="evenodd" d="M315.352 430.348C316.027 428.015 316.777 423.889 319.003 422.4C323.031 419.706 326.538 423.77 326.539 428.053C326.54 436.043 317.445 438.563 315.352 430.348Z" fill="black"/>
<path fill-rule="evenodd" clip-rule="evenodd" d="M272.455 523.767C276.949 524.797 286.955 535.721 281.152 540.177C275.567 544.466 268.139 527.03 272.455 523.767Z" fill="black"/>
<path fill-rule="evenodd" clip-rule="evenodd" d="M276.733 441.079C282.511 441.54 290.453 450.897 281.472 452.384C274.447 453.548 266.277 443.371 276.733 441.079Z" fill="black"/>
<path fill-rule="evenodd" clip-rule="evenodd" d="M329.043 484.136C330.492 479.255 344.822 484.485 344.017 489.859C343.589 492.716 337.73 493.387 334.65 492.632C330.116 491.519 328.939 488.545 329.043 484.136Z" fill="black"/>
<path fill-rule="evenodd" clip-rule="evenodd" d="M160.126 211.53C160.23 205.22 172.355 202.648 173.243 209.007C174.046 214.752 159.974 220.865 160.126 211.53Z" fill="black"/>
<path fill-rule="evenodd" clip-rule="evenodd" d="M325.037 549.155C325.911 545.982 326.288 542.163 330.251 541.745C334.789 541.266 334.655 544.746 334.122 548.352C332.67 558.163 327.126 558.653 325.037 549.155Z" fill="black"/>
<path fill-rule="evenodd" clip-rule="evenodd" d="M133.561 286.605C127.24 288.031 115.663 275.857 122.739 273.245C127.725 271.402 133.561 282.932 133.561 286.605Z" fill="black"/>
<path fill-rule="evenodd" clip-rule="evenodd" d="M214.183 381.169C210.966 382.684 210.225 383.603 207.754 381.117C205.602 378.952 205.697 372.92 207.544 370.668C214.618 362.044 214.452 377.679 214.183 381.169Z" fill="black"/>
<path fill-rule="evenodd" clip-rule="evenodd" d="M240.429 363.678C243.784 364.105 253.753 373.561 248.562 377.319C242.201 381.923 238.602 367.5 240.429 363.678Z" fill="black"/>
<path fill-rule="evenodd" clip-rule="evenodd" d="M313.017 366.168C310.578 375.559 304.491 369.24 304.836 362.134C305.39 350.752 311.698 360.665 313.017 366.168Z" fill="black"/>
<path fill-rule="evenodd" clip-rule="evenodd" d="M350.029 516.994C354.155 518.701 359.755 534.473 353.862 535.319C347.243 536.268 349.447 520.278 350.029 516.994Z" fill="black"/>
<path fill-rule="evenodd" clip-rule="evenodd" d="M298.504 508.133C303.225 506.54 304.955 516.499 302.211 518.349C296.174 522.419 297.447 510.483 298.504 508.133Z" fill="black"/>
<path fill-rule="evenodd" clip-rule="evenodd" d="M253.744 480.997C253.684 482.319 253.625 483.641 253.563 484.955C253.622 483.631 253.682 482.314 253.744 480.997Z" fill="black"/>
<path fill-rule="evenodd" clip-rule="evenodd" d="M411.787 542.386C411.738 543.742 411.689 545.097 411.638 546.446C411.685 545.088 411.736 543.737 411.787 542.386Z" fill="black"/>
<path fill-rule="evenodd" clip-rule="evenodd" d="M329.043 484.136C329.017 485.286 328.989 486.436 328.959 487.579C328.985 486.426 329.015 485.281 329.043 484.136Z" fill="black"/>
<path fill-rule="evenodd" clip-rule="evenodd" d="M851.24 464.345C861.028 464.031 871.947 460.347 881.565 461.519C884.213 461.842 890.308 462.509 886.066 466.436C884.037 468.314 874.324 467.343 871.384 467.966C853.413 471.771 833.013 474.225 814.586 473.908C805.96 473.76 797.27 473.069 788.648 472.613C780.032 472.157 779.185 468.656 788.88 467.542C798.949 466.386 809.281 466.815 819.4 466.803C830.038 466.789 840.623 465.055 851.24 464.345Z" fill="black"/>
<path fill-rule="evenodd" clip-rule="evenodd" d="M872.728 440.763C871.786 443.445 870.959 449.601 867.349 450.005C862.293 450.57 861.456 441.889 861.642 438.714C861.868 434.882 863.247 428.516 868.01 429.844C872.033 430.964 872.436 437.696 872.728 440.763Z" fill="black"/>
<path fill-rule="evenodd" clip-rule="evenodd" d="M842.119 438.799C842.858 435.927 843.221 429.451 847.283 429.231C851.823 428.986 853.12 435.733 853.09 438.966C853.06 442.035 851.925 447.832 848.31 448.541C843.409 449.502 842.971 442.081 842.119 438.799Z" fill="black"/>
<path fill-rule="evenodd" clip-rule="evenodd" d="M791.143 443.951C789.672 447.403 788.699 452.158 784.147 449.804C780.627 447.984 780.136 440.643 780.8 437.282C781.488 433.8 782.945 429.806 786.946 431.372C791.56 433.179 791.094 440.15 791.143 443.951Z" fill="black"/>
<path fill-rule="evenodd" clip-rule="evenodd" d="M829.746 440.763C825.407 453.916 817.493 445.017 820.498 435.197C823.64 424.933 829.347 434.902 829.746 440.763Z" fill="black"/>
<path fill-rule="evenodd" clip-rule="evenodd" d="M808.605 441.414C807.4 443.73 806.118 448.726 802.87 448.2C798.888 447.554 798.76 439.891 799.197 437.037C799.578 434.539 800.7 430.376 804.033 430.43C808.849 430.508 808.526 438.416 808.605 441.414Z" fill="black"/>
<path fill-rule="evenodd" clip-rule="evenodd" d="M895.157 443.939C891.927 451.186 887.484 444.943 888.906 439.796C891.015 432.163 894.974 438.926 895.157 443.939Z" fill="black"/>
<path fill-rule="evenodd" clip-rule="evenodd" d="M816.053 466.812C812.526 466.798 808.997 466.785 805.47 466.772C809 466.107 812.53 465.848 816.053 466.812Z" fill="black"/>
<path fill-rule="evenodd" clip-rule="evenodd" d="M886.154 461.489C883.094 461.509 880.035 461.528 876.977 461.548C880.031 460.632 883.09 460.612 886.154 461.489Z" fill="black"/>
<path fill-rule="evenodd" clip-rule="evenodd" d="M851.24 464.345C848.791 464.509 846.343 464.673 843.895 464.837C846.344 464.673 848.792 464.509 851.24 464.345Z" fill="black"/>
<path fill-rule="evenodd" clip-rule="evenodd" d="M791.143 443.951C791.121 442.193 791.097 440.435 791.076 438.681C791.981 440.429 791.918 442.185 791.143 443.951Z" fill="black"/>
<path fill-rule="evenodd" clip-rule="evenodd" d="M810.338 473.871C811.758 473.884 813.178 473.896 814.586 473.909C813.162 473.896 811.75 473.884 810.338 473.871Z" fill="black"/>
<path fill-rule="evenodd" clip-rule="evenodd" d="M786.492 472.613C787.93 472.613 789.369 472.612 790.797 472.613C789.353 472.613 787.923 472.613 786.492 472.613Z" fill="black"/>
<path fill-rule="evenodd" clip-rule="evenodd" d="M798.284 466.964C796.284 467.128 794.284 467.292 792.285 467.456C794.285 467.292 796.284 467.128 798.284 466.964Z" fill="black"/>
<path fill-rule="evenodd" clip-rule="evenodd" d="M825.324 466.79C823.349 466.794 821.375 466.798 819.4 466.802C821.374 465.97 823.348 465.946 825.324 466.79Z" fill="black"/>
<path fill-rule="evenodd" clip-rule="evenodd" d="M808.605 441.414C808.556 439.582 808.508 437.75 808.462 435.92C808.511 437.753 808.558 439.584 808.605 441.414Z" fill="black"/>
<path fill-rule="evenodd" clip-rule="evenodd" d="M780.801 437.282C780.79 439.069 780.779 440.856 780.765 442.636C780.776 440.847 780.788 439.065 780.801 437.282Z" fill="black"/>
<path fill-rule="evenodd" clip-rule="evenodd" d="M862.461 463.68C860.715 463.838 858.97 463.995 857.226 464.153C858.972 463.995 860.717 463.838 862.461 463.68Z" fill="black"/>
<path fill-rule="evenodd" clip-rule="evenodd" d="M895.157 443.939C895.1 442.378 895.044 440.817 894.988 439.258C895.045 440.82 895.1 442.379 895.157 443.939Z" fill="black"/>
<path fill-rule="evenodd" clip-rule="evenodd" d="M820.888 473.923C822.103 473.9 823.318 473.877 824.521 473.856C823.302 473.88 822.095 473.902 820.888 473.923Z" fill="black"/>
<path fill-rule="evenodd" clip-rule="evenodd" d="M872.728 440.763C872.621 439.641 872.514 438.518 872.408 437.4C872.515 438.524 872.622 439.643 872.728 440.763Z" fill="black"/>
<path fill-rule="evenodd" clip-rule="evenodd" d="M829.746 440.763C829.668 439.611 829.589 438.458 829.511 437.309C829.59 438.462 829.668 439.613 829.746 440.763Z" fill="black"/>
<path fill-rule="evenodd" clip-rule="evenodd" d="M203.11 102.233C198.331 100.979 197.435 94.2629 198.203 90.1379C199.074 88.1499 199.945 86.1629 200.816 84.1749C200.475 83.4399 200.135 82.7049 199.795 81.9699C200.232 77.8759 199.115 76.0969 203.82 77.7549C212.56 80.8369 213.957 101.917 203.11 102.233Z" fill="black"/>
<path fill-rule="evenodd" clip-rule="evenodd" d="M273.852 89.2479C277.789 88.9379 284.94 93.5229 281.021 97.9589C278.593 100.707 270.592 99.4069 267.328 99.9809C262.999 100.742 258.484 101.783 260.826 95.2989C262.665 90.2069 269.233 89.1149 273.852 89.2479Z" fill="black"/>
<path fill-rule="evenodd" clip-rule="evenodd" d="M269.709 119.747C265.71 116.54 267.495 101.933 273.581 104.561C279.842 107.266 273.046 117.639 269.709 119.747Z" fill="black"/>
<path fill-rule="evenodd" clip-rule="evenodd" d="M198.203 90.1379C198.203 91.6749 198.202 93.2129 198.199 94.7429C197.365 93.2029 197.391 91.6699 198.203 90.1379Z" fill="black"/>
<path fill-rule="evenodd" clip-rule="evenodd" d="M203.11 102.233C203.925 102.21 204.741 102.186 205.546 102.165C204.727 102.191 203.919 102.212 203.11 102.233Z" fill="black"/>
<path fill-rule="evenodd" clip-rule="evenodd" d="M696.892 522.9C696.518 529.544 689.383 524.632 689.889 520.187C690.808 512.121 695.369 520.092 696.892 522.9Z" fill="black"/>
</svg>
